<?xml version="1.0" encoding="utf-8"?>
<!-- Generator: Adobe Illustrator 27.0.0, SVG Export Plug-In . SVG Version: 6.00 Build 0)  -->
<svg version="1.1" id="Layer_1" xmlns="http://www.w3.org/2000/svg" xmlns:xlink="http://www.w3.org/1999/xlink" x="0px" y="0px"
	 viewBox="0 0 1080 1080" style="enable-background:new 0 0 1080 1080;" xml:space="preserve">
<style type="text/css">
	.st0{fill:#BFE3DF;}
	.st1{fill:#C7DEDC;}
	.st2{fill:#2FA9B0;}
	.st3{fill:#217C92;}
	.st4{fill:#1E5671;}
	.st5{fill:#1F5671;}
	.st6{fill:none;}
</style>
<g>
	<g>
		<path class="st0" d="M352.5,406.2C352.5,406.3,352.6,406.3,352.5,406.2L352.5,406.2C352.6,406.3,352.5,406.3,352.5,406.2z
			 M339.1,407C339.1,407.1,339.1,407.1,339.1,407C339.1,407.1,339.1,407.1,339.1,407L339.1,407z M352.5,406.2
			C352.5,406.3,352.6,406.3,352.5,406.2L352.5,406.2C352.6,406.3,352.5,406.3,352.5,406.2z M356.8,332.3
			C356.8,332.3,356.8,332.3,356.8,332.3L356.8,332.3C356.8,332.3,356.8,332.3,356.8,332.3L356.8,332.3z M370.4,513.9L370.4,513.9
			L370.4,513.9C370.4,513.9,370.4,513.9,370.4,513.9z M479.2,427.3L479.2,427.3L479.2,427.3L479.2,427.3z M637.3,731.9l0,0.1l0,0
			C637.3,732,637.3,731.9,637.3,731.9z M483.3,431.5C483.3,431.5,483.3,431.5,483.3,431.5L483.3,431.5L483.3,431.5z"/>
		<path class="st1" d="M602.7,296.3C602.7,296.4,602.7,296.4,602.7,296.3C602.7,296.4,602.7,296.4,602.7,296.3L602.7,296.3z"/>
		<path class="st2" d="M602.7,296.3C602.7,296.4,602.7,296.4,602.7,296.3C602.7,296.4,602.7,296.4,602.7,296.3L602.7,296.3z"/>
		<path class="st1" d="M659.6,266.8c-1.1,0-2.1,0.1-3.2,0.1c0.1-0.1,0.1-0.1,0.2-0.2c0.9,0,1.9-0.1,2.9-0.1
			C659.5,266.7,659.5,266.7,659.6,266.8z"/>
		<path class="st2" d="M483.3,431.5C483.3,431.5,483.3,431.5,483.3,431.5L483.3,431.5L483.3,431.5z M718.5,428.2
			C718.5,428.2,718.5,428.2,718.5,428.2L718.5,428.2c0.1,0,0.1,0,0.1,0L718.5,428.2z M479.2,427.3L479.2,427.3L479.2,427.3
			L479.2,427.3z"/>
		<path class="st3" d="M802.2,469.1c-1.4,12.3-5.2,24.2-10.2,35.5c-4.6,10.6-10.4,20.7-17,30.2c-6.6,9.6-14,18.7-21.8,27.5
			c-7.4,8.3-15.2,16.3-23.1,24.2c-2,2-4,4-6,5.9c-4.9,4.9-10,9.8-16.5,12.4c-6.2,2.4-13,2.3-19.7,2.2l-34.5-0.6
			c-4-0.1-8.3-0.2-11.5-2.6c-2.7-2-4.3-5.1-6.3-7.8c-7.5-9.7-23.5-11.2-32.7-3.1c-9.8,8.7-10.3,23.5-10,36.6
			c0.5,25.6,1.1,51.2,1.6,76.8c0.1,5.6,0.2,11.4-1.5,16.8c-1.6,5-4.7,9.3-8.2,13.1c-10.3,10.9-25.2,17.5-40.2,17.6
			c-0.3-14-0.6-28-0.8-42c-0.1-3-0.1-6.2,1.4-8.9c1.6-2.7,4.5-4.3,6.8-6.5c6.8-6.4,7.2-18.4,0.9-25.3c-6.3-6.9-18.4-7.4-25.3-1
			c-6.9,6.3-7.5,18.3-1.2,25.2c2.3,2.5,5.3,4.4,6.9,7.4c1.6,2.9,1.6,6.4,1.6,9.8c-0.1,13.7-0.3,27.4-0.4,41.1
			c-15.2-0.1-30.2-6.5-40.8-17.2c-3-3.1-5.8-6.6-7.3-10.7c-1.8-4.7-1.7-9.9-1.7-15c0.4-28.3,0.7-56.7,1-85c0.1-10.1,0-20.9-6-29
			c-8.6-11.7-28.8-11.7-37.5-0.1c-2.3,3.1-4.1,7-7.6,8.8c-2.3,1.1-4.9,1.1-7.5,1.1c-10.6,0-21.1-0.2-31.7-0.2
			c-5.3,0-10.6-0.1-15.9-0.1c-2.7,0-5.3,0-8-0.1c-1.5,0-2.9-0.2-4.1-1.2c-1.3-1.1-2.3-2.5-3.6-3.6c-1.8-1.7-3.6-3.3-5.4-5
			c-3.6-3.3-7.2-6.7-10.7-10.1c-7.1-6.8-14-13.7-20.6-20.9c-6.5-7-12.6-14.3-18.3-21.9c-17-22.7-29.9-49.2-32.5-77.4
			c14.7-6.2,32,0.2,44.3,10.4c12.3,10.2,21.3,23.7,32.4,35.2c4.8,5,10.2,9.7,16.9,11.6c4.2,1.2,8.7,1.3,13.1,1.3
			c15.7,0.1,31.5,0.2,47.2,0.3c0.2,0,0.2,27.5,0.9,30.2c0.3,1.1,0.7,2.1,1.4,3c1.4,1.7,3.6,2.5,5.8,2.9c2.5,0.4,5.1,0.3,7.7,0.3
			c2.5,0,5,0,7.5,0c5.3,0,10.6,0,15.9,0c6.9,0,13.7,0,20.5,0c2.6,0,5.5,0.2,7.1,2.3c1,1.4,1.1,3.3,1.1,5c0,15.1,0,30.1,0,45.2
			c0,3.6,0.1,7.5,2.2,10.4c3.2,4.2,9.3,4.6,14.6,4.6c16.7,0,33.4-0.1,50.1-0.1c4.5,0,9.5-0.3,12.5-3.5c2.7-2.9,2.8-7.2,2.9-11.2
			c0.2-17.5,0.3-34.9,0.5-52.4c16.5-0.1,33-0.2,49.5-0.3c4.4,0,9.2-0.2,12.8-2.8c4.1-3,5.1-7.9,5.2-12.7c0.1-3.5,0-6.9,0-10.4
			c0-2.6-0.6-7.6,1-9.9c0.8-1.1,1.7-0.8,3.2-0.8c3,0,5.9,0,8.9,0c11.8,0,23.6,0,35.4,0c4.7,0,9.5,0,13.8-1.7c5.1-2,9-6.1,12.8-10
			c7.5-7.9,15.1-15.8,22.6-23.8c7.5-7.9,15.2-15.9,24.8-21c4.9-2.6,10.3-4.3,15.8-4.7c4.5-0.3,9.7-0.9,13.6,1.7
			c0.4,0.2,0.7,0.5,1,0.8c0.2,0.3,0.4,0.6,0.6,0.9C802.3,467.7,802.2,468.4,802.2,469.1z"/>
		<path class="st3" d="M347.3,401C347.2,401,347.2,401,347.3,401L347.3,401C347.3,401,347.3,401,347.3,401z"/>
		<path class="st3" d="M352.6,406.2L352.6,406.2C352.6,406.3,352.5,406.3,352.6,406.2L352.6,406.2z"/>
		<path class="st3" d="M355.6,408.6C355.6,408.6,355.5,408.6,355.6,408.6C355.5,408.6,355.5,408.6,355.6,408.6
			C355.5,408.6,355.5,408.6,355.6,408.6C355.5,408.6,355.5,408.6,355.6,408.6z"/>
		<path class="st3" d="M356.8,332.2C356.8,332.3,356.8,332.3,356.8,332.2L356.8,332.2C356.8,332.3,356.8,332.3,356.8,332.2
			L356.8,332.2L356.8,332.2z"/>
		<path class="st4" d="M355.6,408.6C355.6,408.6,355.5,408.6,355.6,408.6C355.5,408.6,355.5,408.6,355.6,408.6
			C355.5,408.6,355.5,408.6,355.6,408.6C355.5,408.6,355.5,408.6,355.6,408.6z"/>
		<path class="st3" d="M339.1,407.1C339.1,407.1,339.1,407.1,339.1,407.1C339.1,407.1,339.1,407.1,339.1,407.1
			C339.1,407.1,339.1,407.1,339.1,407.1L339.1,407.1z"/>
		<path class="st3" d="M362.1,505.3L362.1,505.3C362.1,505.4,362.1,505.4,362.1,505.3C362.1,505.3,362.1,505.3,362.1,505.3z"/>
		<path class="st3" d="M366.3,509.6L366.3,509.6C366.3,509.6,366.2,509.6,366.3,509.6C366.2,509.6,366.3,509.6,366.3,509.6z"/>
		<path class="st3" d="M370.5,513.9C370.4,513.9,370.4,513.9,370.5,513.9L370.5,513.9L370.5,513.9z"/>
		<path class="st4" d="M339.1,407.1C339.1,407.1,339.1,407.1,339.1,407.1C339.1,407.1,339.1,407.1,339.1,407.1
			C339.1,407.1,339.1,407.1,339.1,407.1L339.1,407.1z"/>
		<path class="st4" d="M362.1,505.3L362.1,505.3C362.1,505.4,362.1,505.4,362.1,505.3C362.1,505.3,362.1,505.3,362.1,505.3z"/>
		<path class="st5" d="M475.7,714C475.7,714.1,475.7,714.1,475.7,714c-0.2,0.1-0.3,0.1-0.4,0c-0.5-0.2-0.9-0.6-1.3-0.8
			c-0.5-0.3-0.9-0.6-1.4-0.9c-1-0.7-1.9-1.5-2.8-2.4c-0.9-0.9-1.8-1.8-2.8-2.7c-15-14.8-29.8-29.8-44.5-44.9
			c-3.4-3.5-6.9-6.9-10.4-10.3c-3.5-3.4-7-6.9-10.5-10.3c-3.5-3.5-6.9-6.9-10.3-10.5c-3.4-3.5-6.7-7.2-9.8-10.9
			c-1.2-1.4-2.4-2.8-3.5-4.2c-0.1-0.1-0.1-0.2-0.1-0.3c0-0.1,0.1-0.1,0.2-0.2c2.6-0.9,5.4-0.9,8.2-0.7c1.3,0.1,2.5,0.2,3.8,0.2
			c0.1,0,0.2,0,0.3,0c4.7,0,9.3,0,14,0c9.3,0,18.7,0,28,0.1c1.1,0,2.3,0,3.3,0.6c1.3,0.8,1.8,2.5,2.3,4c2.3,6.6,7.5,12.2,14,14.8
			c6.5,2.6,14.1,2.2,20.4-1c1-0.5,2.3-1,3-0.2c0.4,0.4,0.4,1,0.4,1.6c0,2.7,0,5.3,0,8c0,2.7,0,5.3,0,8c0,2.7,0,5.3,0,8
			c0,2.7,0,5.3,0,8c0,2.7,0,5.3,0,8c0,2.7,0,5.3,0,8c0,2.7,0,5.3,0,8c0,2.7,0,5.3,0,8c0,2.7,0,5.3,0,8c0,2.3,0,4.6,0.1,7
			C475.8,713.8,475.8,713.9,475.7,714z"/>
		<path class="st4" d="M347.3,401C347.2,401,347.2,401,347.3,401L347.3,401C347.3,401,347.3,401,347.3,401z"/>
		<path class="st3" d="M637.3,731.9l0,0.1l0,0C637.3,732,637.3,731.9,637.3,731.9z"/>
		<path class="st3" d="M354.7,314.2c-0.1,0.1-0.1,0.2-0.2,0.2c-0.8,0.9-1.9,1.4-3,1.8c-41.2,17.5-73.6,54.7-85.1,97.9
			c-2,7.5-3.4,15.2-5.8,22.6c-0.4,1.2-1.9,3.7-3.3,2.3c-1.3-1.3-1-3.8-0.8-5.5c3.8-26.6,14.6-52.2,31-73.5
			c16.4-21.3,38.4-38.3,63.1-48.8c1.4-0.6,3.1-1.1,4.1,0C355.4,312,355.3,313.3,354.7,314.2z"/>
		<path class="st2" d="M476.2,444.5c0,9-7,16.4-15.3,16.1c-8.3-0.2-15.4-7.9-15.3-16.5c0.1-8.1,7.5-15,15.9-15
			C470,429.3,476.2,435.8,476.2,444.5z"/>
		<path class="st2" d="M476.1,611.9c0,8.7-6.8,15.5-15.8,15.5c-6.9,0-14.7-6.1-14.4-15c0.3-9,6.3-15.4,15.1-15.4
			C469.5,596.9,476.1,603.5,476.1,611.9z"/>
		<path class="st2" d="M633.2,612.3c0,8-6.8,15.5-14.4,15c-9.7-0.5-15.5-6.9-15.5-15.2c0-8.8,6.1-15.2,14.6-15.2
			C626.3,596.9,633.2,603.8,633.2,612.3z"/>
		<path class="st4" d="M283.7,568.8c-0.1,0-0.1,0.1-0.2,0.1c-1.4,0.9-2,0-2.9-1.1c-2-2.2-3.8-4.5-5.7-6.9
			c-3.7-4.7-7.1-9.6-10.2-14.6c-6.3-10.1-11.6-20.8-15.7-31.9c-4.4-11.9-7.6-24.3-9.3-36.9c-0.4-3.1-0.8-6.3-1-9.4
			c-0.3-3.2-0.4-6.4-0.5-9.5c-0.1-3.2-0.1-6.4,0-9.5c0.1-3.2,0.3-6.4,0.6-9.5c0.3-3.2,0.6-6.3,1.1-9.5c0.4-3.2,1-6.3,1.6-9.4
			c0.6-3.1,1.3-6.2,2.1-9.3c0.8-3.1,1.7-6.1,2.6-9.2c1-3,2-6,3.1-9c1.1-3,2.3-5.9,3.6-8.8c0.6-1.3,1.2-2.6,1.8-3.9
			c1.2-2.8,2.7-5.8,5.3-7.6c2.1-1.5,1.7,2.4,1.3,3.4c-4.1,12.2-9.3,23.9-12.9,36.3c-3.6,12.6-5.1,26-5.4,39.1c0,0.8,0,1.7,0,2.5
			c0,7.6,0.5,15.3,1.5,22.9c4.2,31.1,17.5,60.9,37.8,84.9c1.1,1.3,2.2,2.7,2.4,4.3C284.8,567,284.4,568.2,283.7,568.8z"/>
		<path class="st3" d="M556.4,794.7c-0.9,0.6-2,0.8-3.1,0.9c-17.6,2.1-35.9-0.1-52.1-7.3c-9.8-4.3-18.7-10.5-27-17.3
			c-3.8-3.1-7.5-6.5-11-9.9c-2.2-2.1-4.3-4.4-6.4-6.6c-2.5-2.6-4.9-5.2-7.4-7.8c-0.8-0.8-2.2-1.9-2.2-3.1c0-1,1-2.1,2-2.2
			c1.6-0.1,2.9,1,4,2c9,8.3,16.8,17.8,26.1,25.6c20.3,16.9,47.7,24.9,74,21.7c1.5-0.2,3.4-0.2,4,1.2c0,0.1,0.1,0.2,0.1,0.3
			C557.7,793.1,557.2,794.1,556.4,794.7z"/>
		<path class="st4" d="M558,776c-0.4,2-2.7,2.7-4.7,3c-18.3,2.8-37.6-0.7-53.8-9.8c-8.1-4.6-15.3-10.4-22-16.8
			c-3.4-3.2-6.6-6.5-9.9-9.9c-1.6-1.7-3.2-3.4-4.8-5.1c-1.3-1.4-2.8-2.6-2.7-4.7c0-0.8,0.3-1.6,1.1-2c1.5-0.7,3.1,0.6,4.2,1.8
			c11.2,12.5,22.8,25.2,37.6,33.2c14.1,7.6,30.6,10.4,46.6,8.7C552.5,774.2,555.9,773.9,558,776C558,776,558,776,558,776z"/>
		<path class="st4" d="M315.9,316.5c-0.3,0.9-1.2,1.8-2,2.4c-12.5,9.5-23.9,20.3-34.1,32.3c-1.1,1.2-2.2,2.6-3.7,3.3
			c-1.7,0.9-3.4,0.5-3.1-1.7c0.3-2.2,2.8-4.6,4.1-6.3c3.9-5,8.4-9.5,13-13.9c4.2-4,8.4-7.9,12.7-11.8c2.2-2,4.4-4,6.9-5.6
			c1.3-0.8,2.8-1.6,4.3-1.4c0.8,0.1,1.7,0.6,2,1.4C316,315.7,316,316.1,315.9,316.5z"/>
		<path class="st4" d="M637.3,731.9l0,0.1l0,0C637.3,732,637.3,731.9,637.3,731.9z"/>
		<path class="st5" d="M690.5,667.2c-1.2-1-2.5-1.9-3.9-2.5c-0.5-0.2-1-0.4-1.5-0.6c-6.5-2-14.3,0.7-18.1,6.4
			c-0.9,1.3-1.6,2.8-2.2,4.2c-0.5,1-0.7,2.1-1.2,3.1c-0.5,1-1,2-1.5,3c-1.1,1.9-2.5,3.7-4,5.3c-1.2,1.3-2.4,2.4-3.7,3.6
			c-1.2,1.1-2.4,2.3-3.5,3.5c-1.8,1.9-3.7,3.8-5.5,5.8l-11,11.5c-3.7,3.8-7.4,7.7-11,11.5c-3.7,3.8-7.4,7.7-11,11.5
			c-1.7,1.8-3.4,3.6-5.1,5.3c-0.7,0.8-1.5,1.6-1.8,2.6s0,2.3,0.9,2.8c1.3,0.7,2.8-0.5,3.9-1.5c0.2-0.1,0.4-0.5,0.6-0.6l0.7-0.8
			c0.5-0.5,0.9-0.9,1.4-1.4c0.9-1,1.8-1.9,2.8-2.9c1.9-1.9,3.7-3.8,5.5-5.7c3.7-3.8,7.4-7.6,11.1-11.4c3.7-3.8,7.4-7.6,11.1-11.4
			c3.7-3.8,7.4-7.6,11.1-11.4c3.2-3.3,6.5-6.7,9.7-10c0.3-0.3,0.6-0.6,0.9-0.7c0.3-0.1,0.6,0,0.8,0.1c3,0.9,4.4,4.5,4.3,7.4
			c-0.1,3-1.5,5.5-3.5,7.7c-9.1,10-19,19.4-28.6,29c-10,10.1-19.9,20.1-29.9,30.2c-1.8,1.9-3.7,3.7-5.5,5.6c-1.1,1.1-5,5-2.5,6.3
			c2.3,1.2,5.9-2.5,7.2-3.8c20.9-21.5,41.9-43,62.8-64.6c1.3-1.4,2.7-2.7,4-4.1c0.6-0.7,1.3-1.3,2.1-1.7c0,0,5.4-2.9,8.1-3.7
			c6-1.6,10.8-7.2,11.6-13.4c0.1-0.4,0.1-0.8,0.1-1.1c0-0.2,0-0.4,0-0.6C696.3,674.9,694,670.2,690.5,667.2z M637.3,732l0-0.1
			C637.3,731.9,637.3,732,637.3,732L637.3,732z M687.4,687.4c-4.2,4.1-11.7,4-15.7-0.2c-1.4-1.5-2.3-3.2-2.8-5.1
			c-0.2-0.6-0.2-1.2-0.3-1.8c-0.3-3.4,0.9-6.8,3.4-9.2c4.4-4.2,12.3-4.3,16.1,0.3C692.3,676.3,692.2,682.3,687.4,687.4z"/>
		<path class="st5" d="M475.9,269.5c-1-0.7-2-1.2-3.2-1.6c-5.5-1.9-11.5-0.5-17.2,0.1c-12.6,1.5-25.4-0.3-38.1-0.8
			c-66.4-2.7-133.1,32.7-167.9,89.3c-34.8,56.6-36.4,132.2-3.7,190c22.4,39.8,58.4,69.7,90,102.6c5.2,5.4,9.9,11.3,14.6,17.1
			c4.7,5.8,5.5,14.4,12.1,18.6c6.6,4.3,16.5,2.1,21-4.2c3.9-5.5,3.4-13.4-0.5-18.8c-3.3-4.7-9.2-6-14.3-7.6
			c-2.4-0.8-4.6-2.1-6.4-3.9c-1.9-1.9-3.2-4.3-5.1-6.1c-1-0.9-2.2-1.8-3.5-1.9c-1.3-0.1-3.1,0.3-2.1,1.9c1.6,2.7,3.4,5.3,5.6,7.7
			c1.1,1.2,2.3,2.2,3.6,3.2c0.9,0.7,3.2,1.6,2.9,3.1c-0.2,0.5-0.6,1-1,1.3c-1.2,0.9-2.6,1.3-4.1,1.3c-2.8-0.1-5.1-2.2-7.1-4
			c-25.6-22.6-51.2-45.5-72.9-71.8c-21.7-26.4-39.6-56.5-47.6-89.7c-13.9-57.7,4.6-121.5,45.6-164.5
			c40.9-42.9,102.6-64.4,161.7-58.5c4,0.4,8.4,1.1,11.2,4.1c2.8,3,2.3,9-1.6,10c-1.5,0.4-3,0-4.4-0.3c-30.5-7.1-63.2-4.5-92.2,7.4
			c-1.6,0.6-3.2,1.6-4.2,2.8c-0.2,0.3-0.5,0.6-0.5,1c0.3,4,6.7,0.6,8.6,0c5.7-1.8,11.3-4,17.2-5.6c5.9-1.6,11.9-3,17.9-3.7
			c12-1.5,24.2-1.3,36.2,0.4c9.4,1.4,18.5,3.6,27.6,6.4c5.5,1.7,11.3,3.8,17,2.6c6.5-1.4,11.7-7.4,12.1-14
			C483.3,277.9,480.4,272.5,475.9,269.5z M361.9,663.8c0.2-0.2,0.3-0.4,0.5-0.6c1.2-1.4,2.7-2.6,4.4-3.2c1.8-0.6,3.9-0.5,5.8,0
			c2.3,0.5,4.5,1.6,6.2,3.3c2.8,2.7,4,7,3,10.8c-1,3.8-4.2,6.9-8,7.9c-6.7,1.8-13.9-3.4-14.2-10.4
			C359.4,668.8,360.3,666,361.9,663.8z M470.2,293.3c-1.3,0.5-2.8,0.8-4.2,0.8c-3.8,0-7.5-1.8-9.7-4.9c-4.8-6.9-0.6-16,7.2-17.8
			c6.6-1.5,13,2.7,13.9,9.4C478.2,286,475.1,291.4,470.2,293.3z"/>
		<path class="st4" d="M637.3,732L637.3,732L637.3,732C637.3,731.9,637.3,732,637.3,732z"/>
		<path class="st4" d="M548.6,684c0,4.6-4.2,8.7-8.8,8.7c-4.8,0-8.9-4.3-8.8-9.3c0.1-4.9,3.9-8.6,8.7-8.6
			C544.6,674.9,548.6,679,548.6,684z"/>
		<path class="st3" d="M327.1,612c-0.1,0.9-1,1.6-1.9,1.7c-3,0.4-5.5-3.6-7.2-5.4c-2.4-2.5-4.8-5-7.2-7.6c-0.7-0.7-1.4-1.5-1.7-2.5
			c-0.3-1,0-2.2,0.9-2.7c1.2-0.6,2.7,0.4,3.6,1.4c4.2,4.3,8.3,8.6,12.4,12.9c0.5,0.5,1,1.1,1.1,1.8
			C327.1,611.8,327.1,611.9,327.1,612z"/>
		<path class="st3" d="M312.4,572.7c0,0.9-0.7,1.8-1.6,2.1c-3.9,1.1-9-6.8-10.8-9.4c-0.4-0.5-0.7-1-0.7-1.6c-0.1-1,0.8-1.8,1.7-2.2
			c0.4-0.2,0.9-0.3,1.3-0.2c0.5,0.1,0.8,0.5,1.1,0.8c2.6,2.8,5.2,5.5,7.8,8.3c0.6,0.6,1.2,1.3,1.3,2.1
			C312.4,572.6,312.4,572.7,312.4,572.7z"/>
		<path class="st4" d="M370.5,513.9C370.4,513.9,370.4,513.9,370.5,513.9L370.5,513.9L370.5,513.9z"/>
		<path class="st4" d="M370.4,513.9L370.4,513.9C370.5,513.9,370.5,513.9,370.4,513.9L370.4,513.9z"/>
		<path class="st4" d="M366.3,509.6L366.3,509.6C366.3,509.6,366.2,509.6,366.3,509.6C366.2,509.6,366.3,509.6,366.3,509.6z"/>
		<path class="st4" d="M370.5,513.9C370.4,513.9,370.4,513.9,370.5,513.9C370.4,513.9,370.4,513.9,370.5,513.9L370.5,513.9z"/>
		<path class="st4" d="M355.6,408.6C355.6,408.6,355.5,408.6,355.6,408.6C355.5,408.6,355.5,408.6,355.6,408.6
			C355.5,408.6,355.5,408.6,355.6,408.6C355.5,408.6,355.5,408.6,355.6,408.6z"/>
		<path class="st4" d="M347.3,401C347.3,401,347.3,401,347.3,401C347.2,401,347.2,401,347.3,401L347.3,401z"/>
		<path class="st4" d="M352.6,406.2L352.6,406.2C352.6,406.3,352.5,406.3,352.6,406.2L352.6,406.2z"/>
		<path class="st4" d="M356.8,332.2C356.8,332.3,356.8,332.3,356.8,332.2L356.8,332.2C356.8,332.3,356.8,332.3,356.8,332.2
			L356.8,332.2L356.8,332.2z"/>
		<path class="st4" d="M433.8,383.2c-17.1-17.1-34.5-34-51.1-51.6c-4-4.2-8.4-6.2-14-4.1c-7.6,2.8-14.9,6.4-22.1,9.8
			c-4.1,1.9-7.9,4-11.7,6.5c-3.6,2.4-7,5-10.3,7.7c-6.6,5.4-12.5,11.5-17.9,18.2c-4.8,6-9.1,12.3-13,18.9c-1.4,2.5-1.7,3.1,1,3.7
			c3.5,0.8,7.9,0.4,11.5,0.4c8.3,0,16.6-0.7,24.8,0c10.8,0.9,16,7.9,23.3,15.1c7.3,7.1,14,14.7,21.3,21.8c3.7,3.6,7.4,7.3,11,11
			c2.4,2.5,4.9,3.5,8.3,3.5c12.5-0.2,24.9-0.1,37.4-0.2c4.8,0,4.8,0,4.9-5c0.1-15.8,0-31.6,0.3-47.4
			C437.5,388,436.2,385.5,433.8,383.2z M355.5,408.6C355.5,408.6,355.5,408.6,355.5,408.6C355.5,408.6,355.5,408.6,355.5,408.6
			C355.5,408.6,355.5,408.6,355.5,408.6C355.6,408.6,355.5,408.6,355.5,408.6z"/>
		<path class="st4" d="M356.8,332.3C356.8,332.3,356.8,332.3,356.8,332.3L356.8,332.3C356.8,332.3,356.8,332.3,356.8,332.3z"/>
		<path class="st4" d="M370.4,513.9L370.4,513.9C370.5,513.9,370.5,513.9,370.4,513.9L370.4,513.9z M339.1,407
			C339.1,407.1,339.1,407.1,339.1,407C339.1,407.1,339.1,407.1,339.1,407C339.1,407.1,339.1,407.1,339.1,407L339.1,407z M362,505.3
			C362.1,505.4,362.1,505.4,362,505.3L362,505.3C362.1,505.3,362.1,505.3,362,505.3z"/>
		<path class="st3" d="M802,435.9c-1.6-11-4.5-21.8-8.7-32.1c-1.3-3.3-5.7-2-8.6-2.1c-4,0-8,0-12,0c-3,0-5.9,0-8.9,0
			c-2.1,0-4.1,0-6.2,0c-2.8,0-5.6,0-8.4-0.1c-3.2,0-5.6,1-7.8,3.3c-6.1,6.5-12.5,12.8-18.8,19.1h0.1c-1.4,1.4-2.9,2.8-4.3,4.2l0.1,0
			c0,0,0,0,0,0h0c-0.5,0.4-1,0.7-1.5,1.1c-2,2.1-4,4.2-6.1,6.3c-4.8,4.7-9.8,9.2-14.5,14.1c-2.3,2.4-4.8,3-8,3
			c-13.7-0.2-27.4,0-41.1-0.2c-7.5-0.1-8.7,7-13.8,11.2c-4.8,3.9-11.1,6.1-17.3,5.7c-10-0.7-19.2-8.1-22-17.7
			c-4.1-14.2,5.8-29.1,20.3-30.9c3-0.4,6.1,0.2,9,0.9c2.3,0.6,4.4,1.7,6.8,2.2c0.4,0.1,0.9,0.1,1.3-0.2c0.2-0.2,0.3-0.4,0.4-0.7
			c0.6-2.3,0.2-4.6,0.2-6.9c0-3.1-0.1-6.3-0.1-9.4c0-5.9,0-11.9-0.1-17.8c-0.1-3.6,0.9-6.2,3.6-8.8c11.9-11.6,24-23.1,35.7-34.9
			c1.3-1.3,2.7-2.7,4-4c5-5.1,10-10.4,14.8-15.7c0.4-0.4,0.7-0.9,0.5-1.4c-0.1-0.3-0.5-0.5-0.8-0.6c-6.4-2.5-13.8-1.7-20.5-1.8
			c-7.7-0.2-15.5,0.1-23.1,1c-22.4,2.6-43.4,13.7-61.4,27c-10,7.4-19.1,15.9-27.8,24.8c-4.4,4.4-8.5,9.1-12.9,13.5
			c-4.3,4.3-6.8,2.2-10.5-1.7c-4.1-4.3-8.1-8.5-12.3-12.7c-8.3-8.3-17-16.4-26.3-23.5c-22.2-17.1-48.3-27.6-76.4-28.9
			c-9.7-0.5-21.9-1-31.2,2.3c0.5,1.5,2.2,3.1,3.4,4.3c17.1,17.1,34.1,34.4,51.4,51.3c3.3,3.2,4.6,6.5,4.5,11
			c-0.3,9.3-0.1,18.6,0,27.9c0,2,0.4,4,0.6,6.7c8.4-5.4,19-6.1,27.6-0.4c7.7,5.1,12.1,14.7,10.9,23.8s-7.9,17.3-16.6,20.3
			c-4.7,1.6-9.8,1.8-14.6,0.4c-5.1-1.4-9.8-4.6-13-8.8c-2.8-3.7-3.8-7.4-9.2-7.4c-13.8,0.1-27.7-0.1-41.6,0.1c-3.4,0-6-0.9-8.3-3.3
			c-6.6-6.8-13.4-13.4-20.1-20c-2.2-2.2-4.7-4.1-7-6.2c-2.9-2.6-5.6-5.4-8.4-8.1c-2.9-2.7-5.7-5.4-8.3-8.4c-1.7-2-3.3-4.1-6-4.7
			c-1.4-0.3-2.9-0.4-4.4-0.4c-4.8,0-9.7-0.1-14.5,0c-5.3,0.2-10.6,0.4-15.8,0.4c-0.5,0-1,0-1.4,0c-9.8,0.1-9.7,0.1-13.1,9.1
			c-4.2,11.4-6.7,23.3-7.6,35.2c-0.9,12.2-1,9.5,9.4,9.8c8.7,0.2,17.6,1.1,25.9,4.1c4.2,1.6,8.3,3.8,11.9,6.6c3.8,3,7,6.5,10.4,9.9
			c3.2,3.3,6.5,6.5,9.7,9.8c2.6,2.6,5.1,5.2,7.7,7.9c3.1,3.2,6.3,6.2,9.4,9.3c3,3,6,5.7,9.6,7.8c2.4,1.5,5.1,2.7,7.8,3.6
			c2.9,0.9,6.3,0.8,9.2,0.8c8.8,0.1,17.5-0.1,26.3-0.1c2.8,0,5.6,0.1,8.5,0.1c1.8,0,7.5,1.1,8.1-1.5c0.8-3.3,0.8-6.6,0.8-10
			c0-3.7,0-7.4,0-11.1c0.1-7.6,4.8-12.2,12.7-12.2c11.8-0.1,23.5,0,35.3,0c3.3,0,6.6,0,9.9,0c3,0,6,0.3,8.9-0.5
			c0.2,0,0.4-0.1,0.6-0.2c0.3-0.3,0.4-0.7,0.4-1.2c-0.1-6.9,0-13.9,0-20.8c0-7.1,0-14.2,0.1-21.3c0-3,0-6,0-8.9
			c0.1-9.9,3.9-13.5,13.9-13.5c17.9,0,35.8,0,53.7,0c1.4,0,2.8-0.1,4.2,0c6.6,0.5,10.3,4.2,10.4,10.8c0.3,16.8,0.5,33.7,0.6,50.5
			c0,4.9-0.1,4.9,4.6,4.9c17.5,0,35.1,0.5,52.5-0.2c2.8-0.1,5.7,0.3,7.8,2.1c3.4,3.1,2.6,8,2.6,12c-0.1,5.6,0.2,11.1,0.1,16.6
			c0,2.5,0.8,3.4,3.4,3.4c17.4,0,34.8,0.1,52.2,0c1.9,0,4.2-1,5.5-2.3c10-9.9,20-19.9,29.9-29.9c3.4-3.4,6.8-6.9,10.2-10.3
			c3-3,6-5.9,8.8-9.1c2.4-2.8,5.5-5,8.9-6.4c5.5-2.1,11.6-1.9,17.4-1.8c1.3,0,2.6,0.1,3.9,0.1c1.8,0,3.5,0.1,5.3,0.1
			c1.2,0,2.5,0,3.7,0.1c1.2,0,2.9,0.3,4-0.3c1-0.6,1.2-2,1.2-3.1c0.1-1.2,0.2-2.4,0.1-3.6C803.2,444.3,802.6,440,802,435.9z
			 M479.1,427.3L479.1,427.3L479.1,427.3L479.1,427.3z M483.3,431.5C483.3,431.5,483.3,431.5,483.3,431.5L483.3,431.5L483.3,431.5z
			 M339.1,407.1C339.1,407.1,339.1,407.1,339.1,407.1C339.1,407.1,339.1,407.1,339.1,407.1L339.1,407.1
			C339.1,407.1,339.1,407.1,339.1,407.1z M362.1,505.4C362.1,505.4,362.1,505.4,362.1,505.4C362.1,505.3,362.1,505.3,362.1,505.4
			L362.1,505.4z"/>
		<path class="st4" d="M362.1,505.3L362.1,505.3C362.1,505.4,362.1,505.4,362.1,505.3C362.1,505.3,362.1,505.3,362.1,505.3z"/>
		<path class="st4" d="M366.3,509.6L366.3,509.6C366.3,509.6,366.2,509.6,366.3,509.6C366.2,509.6,366.3,509.6,366.3,509.6z"/>
		<polygon class="st3" points="479.2,427.3 479.1,427.3 479.2,427.3 		"/>
		<path class="st3" d="M483.3,431.6L483.3,431.6C483.3,431.5,483.3,431.5,483.3,431.6L483.3,431.6z"/>
		<path class="st4" d="M339.1,407.1C339.1,407.1,339.1,407.1,339.1,407.1C339.1,407.1,339.1,407.1,339.1,407.1
			C339.1,407.1,339.1,407.1,339.1,407.1z"/>
		<path class="st4" d="M673.2,615.1c-9.2,0-18.4,0-27.6,0c-2.5,0-3.5,0.8-4.3,3.4c-3.3,11.5-13,18.3-24.9,17.5
			c-2.9-0.2-5.8-1.2-8.7-1.8c-1-0.3-1.9-0.8-2.9-0.8c-0.4,0-0.8,1-1.2,1.6c0,1.4,0,2.9,0,4.3c-0.1,21.1-0.1,42.3-0.2,63.4
			c0,2.2,0,4.5,0,6.7c0,1.6-0.5,4.2,0.9,5.5c14.3-14,28.6-28,42.8-42.2c14.4-14.4,28.5-29,42.1-44.1c3.9-4.4,7.8-8.8,11.7-13.3
			C691.7,614.7,682.4,615.1,673.2,615.1z M674.3,641.4L674.3,641.4c0.1-0.2,0.3-0.3,0.5-0.5C674.7,641,674.5,641.2,674.3,641.4z"/>
		<path class="st4" d="M352.5,406.2L352.5,406.2L352.5,406.2C352.6,406.3,352.5,406.3,352.5,406.2z"/>
		<path class="st4" d="M355.6,408.6C355.6,408.6,355.5,408.6,355.6,408.6C355.5,408.6,355.5,408.6,355.6,408.6
			C355.5,408.6,355.5,408.6,355.6,408.6C355.5,408.6,355.5,408.6,355.6,408.6z"/>
		<path class="st4" d="M672.9,728.2c-0.1,0.1-0.2,0.3-0.2,0.4c-0.7,1.1-1.6,2-2.5,2.9c-9.9,9.7-20,19.2-29.5,29.2
			c-8.4,8.9-17.5,17.3-27.3,24.7c-7.2,5.4-14.8,10.3-22.8,14.4c-19.9,10.2-42.7,15.7-64.9,12.8c-22-2.8-42.3-13.5-59.7-27.2
			c-9.2-7.3-17.7-15.4-25.8-23.9c-3.7-3.9-7.1-7.9-10.8-11.8c-3.6-3.9-7.7-7.5-10.4-12.2c-2.9-5.1-3.3-10.5-3.4-16.2
			c-0.1-8.6,1.1-17.2,0.3-25.7c-0.4-4.2-1.3-8.4-3.2-12.3c-3.4-7.1-10.1-12.5-15.7-18c-5.5-5.4-12.1-10.1-17.3-15.7
			c-1.2-1.3-1.4-3.9,0.2-4.6c1.2-0.5,2.5,0.4,3.4,1.3c6.4,6.1,12.8,12.1,19.2,18.2c5.4,5.1,10.8,10.2,14.6,16.6
			c8.2,13.7,1.4,33.6,4.2,48c1.4,7.4,4.5,8.6,9.2,14.5c17.1,21.3,37.5,40.4,62,52.3s53.5,16,79.4,7.5c20.4-6.7,37.6-20.6,52.9-35.6
			c9.3-9.1,18.1-18.7,27.3-27.9c4.7-4.7,9.6-9.1,14.5-13.6c1.1-1,2.2-2,3.4-2.8c0.7-0.5,1.6-0.9,2.4-0.6c0.7,0.3,1.1,1.1,1.2,1.9
			C673.8,726.1,673.4,727.2,672.9,728.2z"/>
		<polygon class="st4" points="479.2,427.3 479.1,427.3 479.2,427.3 		"/>
		<path class="st4" d="M483.3,431.6L483.3,431.6C483.3,431.5,483.3,431.5,483.3,431.6L483.3,431.6z"/>
		<path class="st0" d="M718.5,428.2C718.5,428.2,718.5,428.2,718.5,428.2L718.5,428.2c0.1,0,0.1,0,0.1,0L718.5,428.2z"/>
		<path class="st4" d="M786.8,390.5c-0.9-1.8-1.8-3.5-2.7-5.3C785.1,386.9,786,388.7,786.8,390.5z"/>
		<path class="st3" d="M807.3,523.3c0,0.3,0,0.6-0.1,0.8c-0.2,1.3-0.9,2.6-1.6,3.8c-0.8,1.5-1.6,3-2.5,4.5c-2.7,4.7-5.5,9.3-8.2,14
			c-1,1.8-2.4,2.7-4.3,1.6c-1.9-1.2-1.6-2.9-0.6-4.6c2.4-3.9,4.7-8,7.1-11.9c1.9-3.2,4.2-8.5,7.6-10.3c0.3-0.1,0.6-0.3,0.8-0.2
			C806.7,521.3,807.3,522.2,807.3,523.3z"/>
		<path class="st6" d="M792.5,506.5c-1.8,3.8-3.5,7.6-5.3,11.4"/>
		<path class="st0" d="M786.8,390.5c-0.9-1.8-1.8-3.5-2.7-5.3C785.1,386.9,786,388.7,786.8,390.5z"/>
		<path class="st0" d="M607,298.5l-4.3-2.1c0,0,0,0,0,0c0,0,0,0,0,0C604.1,297.1,605.6,297.8,607,298.5z"/>
		<path class="st4" d="M787,391.3c0,0.2-0.1,0.4-0.2,0.6c-0.4,0.5-1.1,0.6-1.8,0.6c-13.7,0-27.3-0.1-41,0c-1.5,0-3.3,0.9-4.6,1.8
			c-2.2,1.7-4.1,3.8-6.2,5.7c-5.5,5.3-11.1,10.6-16.6,16c-8.5,8.3-16.8,16.9-25.4,25.1c-1.6,1.5-4.2,2.7-6.4,2.7
			c-12.6,0.2-25.3,0.2-37.9,0.1c-5.4,0-5.4-0.2-5.5-5.7c0-15.1,0.1-30.2-0.1-45.3c-0.1-4.4,1.2-7.5,4.3-10.6
			c7.6-7.4,15.1-14.8,22.6-22.2c7.5-7.4,15-14.9,22.6-22.3c2.3-2.3,4.5-4.7,6.9-6.9c1.8-1.6,3.8-4.1,6.4-4.4
			c0.9-0.1,1.9,0.1,2.8,0.4c9.2,2.5,17.9,6.6,26.2,11.3c8.1,4.5,16.4,9.4,23.5,15.3c5.9,4.9,11.2,10.4,16.1,16.3
			c5.2,6.3,10,12.9,13.7,20.2C786.8,390.4,787,390.9,787,391.3z"/>
		<path class="st4" d="M798,340.5c-0.2-0.4-0.5-0.8-0.8-1.1c-0.3-0.3-0.6-0.6-0.9-0.9c-20.8-21.9-47.2-38.4-75.9-47.4
			c-18.9-5.9-38.7-8.6-58.5-8c-5.6,0.2-11.2,0.7-16.8,1.5c-4.6,0.6-9.1,1.4-13.6,2.2c-7.9-0.9-3-10.4,1.5-11.4
			c14.2-3.2,28.9-4.4,43.4-3.6c1.8,0.1,3.7,0.2,5.1-0.8c0.5-0.3,0.9-0.8,1-1.4c0.1-0.8-0.5-1.5-1.1-1.9c-0.7-0.4-1.5-0.4-2.3-0.5
			c-6.5-0.4-13.1-0.7-19.6-0.5c-1,0-1.9,0-2.9,0.1c-1.3,0-2.7,0.1-4,0.2c-4.5,0.3-9,0.8-13.4,1.7c-4.1,0.8-8.3,2.8-12.5,2.1
			c-2.7-0.4-5.1-2-7.6-3c-4.2-1.6-9.1-1.6-13.2,0.3c-4.1,1.9-7.5,5.5-8.8,9.9c-1,3.4-0.8,7.1,0.3,10.4c1.1,3.5,3.3,6.7,6.4,8.6
			c0,0,0,0,0,0c0,0,0.1,0,0.1,0c0.3,0.2,0.6,0.3,0.9,0.5c0.4,0.2,0.8,0.4,1.2,0.6c0,0,0,0,0,0c5.2,2,11.4,0.5,16.6-1.8
			c3.8-1.6,7.5-3.6,11.4-4.9c4-1.3,8.4-1.7,12.6-2.2c52.8-6.5,108.1,13.2,144.9,51.6c1.1,1.1,2.3,2.3,3.8,2.5
			C796.7,343.4,798.5,342,798,340.5z M612.8,294.2c-6,0.3-11.5-5.6-11.4-12c0.1-6.2,5-11.2,10.8-11.2c6.6,0,11.6,4.9,11.6,11.6
			C624.6,287.5,620,293.8,612.8,294.2z"/>
		<path class="st4" d="M854.3,419.1c-2.3-10.6-5.5-20.9-9.2-31.2c-6.8-19.3-17.4-36.5-30.1-52.4c-4.9-6.1-10.5-11.7-16.3-17
			c-7.3-6.7-14.7-13.5-22.8-19.2c-12.8-9.1-27.1-15.7-41.7-21.7l-13.7-4.1c-0.1,0.1-0.3,0.2-0.5,0.1c-1.6,2.4-1.2,4.2,1.7,5.3
			c2,0.7,3.9,1.6,5.9,2.2c20.5,6.3,38.8,16.8,55.6,30c12.3,9.7,23.4,20.8,32.7,33.3c9.7,13.1,17.5,27.4,23.5,42.7
			c7.7,19.4,12.5,39.4,13.1,60.3c0.4,13-0.9,25.9-3,38.7c-5.1,31.3-19.5,58.3-37.9,83.4c-6.8,9.3-14.5,18.1-22.6,26.4
			c-3.4,3.6-7,7-10.5,10.5c-5.6,5.4-11.3,10.6-17,15.7c-1.5-1.4-2.3-3.1-2.6-5.1c0,0,0,0,0,0c-0.5-2.7,0.1-5.7,1.3-8.1
			c2-4.1,5.6-7.1,9-10.1c0.2-0.1,0.3-0.3,0.5-0.4c7.9-6.9,15.3-14.2,22.1-22.2c2.6-3,5.2-6.1,7.6-9.2c11.8-15.2,21.6-32,28.6-50
			c7.2-18.3,11.7-37.9,12.6-57.5c0.6-14,0.7-29.1-3.3-42.7c-0.3-1-0.7-2.1-1.4-2.9c-0.8-0.8-2.1-1.1-3-0.5c-0.8,0.6-1,1.8-1,2.8
			c0,4.3,1.1,8.3,1.7,12.5c0.5,3.7,1.1,7.4,1.5,11c3.3,30.4-3.9,61.3-17.6,88.6c-4.4,8.7-9.4,17.1-15,25.1c-2.3,3.3-4.7,6.6-7.2,9.8
			c-6.5,8.4-13.6,16.4-21,24c-3.2,3.2-6.5,6.4-9.8,9.5c-1.1,1-2.2,2.1-3.4,3.1c-1.9,1.7-3.8,3.4-6.2,4.2c-4.1,1.5-8.5,0.1-12.8,0.5
			c-10.1,0.9-17.4,12.9-13.6,22.2c1.8,4.3,5.6,7.4,10,8.8c1,0.3,2,0.6,3,0.7c1.1,0.2,2.1,0.2,3,0.2c4.8-0.2,8.8-2.8,12.9-5.5
			c3.7-2.3,7.2-4.9,10.6-7.6c1.3-1.1,2.6-2.1,3.9-3.2c3.5-3,6.8-6.1,10-9.4c5.4-5.4,10.5-11,15.5-16.7c0.3-0.4,0.6-0.7,1-1.1
			c14.6-16.6,28.9-34,38.3-54.2c8.5-18.3,15.2-37,18.7-57c0.9-4.9,1.9-9.9,1.9-14.8C858.2,451.1,857.7,435,854.3,419.1z M755.3,621
			c-0.1,0.8-0.2,1.5-0.4,2.1c-0.8,3.1-2.5,5.5-5.1,7c-1.8,1-4,1.6-6.5,1.7c-0.4,0-0.9,0-1.3-0.1c-5.3-0.8-9.7-5.8-9.6-11.2
			c0.2-6.2,5.5-11.4,11.6-11.2c4.1,0.1,7.9,2.6,9.9,5.9C755,617.1,755.5,619,755.3,621z"/>
		<path class="st3" d="M816.9,499.8c-0.8,2.7-3.5,5.3-5.2,1.8c-0.5-1-0.3-2.6,0.1-4.3c0.6-2.7,1.9-5.8,2.4-7.4
			c7.6-29.3,5.8-61-5.2-89.2c-4.1-10.6-9.5-20.7-15.9-30c-6.5-9.4-14-18-22.5-25.7c-5-4.5-10.5-8.5-16-12.5
			c-5.4-3.8-11.2-7.3-16-11.9c-0.5-0.5-1.1-1.3-0.7-1.9c0.3-0.5,1-0.5,1.6-0.5c6.1,0.6,11.1,4.6,16,8c5.4,3.7,10.4,7.7,15.3,12
			c8.4,7.3,16,15.6,22.7,24.6c6.6,9,12.3,18.6,16.9,28.8c0.8,1.8,1.6,3.6,2.3,5.4C825.8,429.4,827.3,466.4,816.9,499.8z"/>
		<path class="st3" d="M718.6,428.2C718.6,428.2,718.6,428.2,718.6,428.2L718.6,428.2C718.5,428.2,718.5,428.2,718.6,428.2
			L718.6,428.2z"/>
		<path class="st4" d="M674.8,640.9c-0.2,0.2-0.3,0.3-0.5,0.5l-0.1-0.1C674.4,641.2,674.6,641,674.8,640.9z"/>
		<path class="st2" d="M633.3,444.4c-0.2,8.4-5.4,16-15.9,16.1c-8.2,0.1-14.6-6.7-14.5-15.7c0-9.4,6.4-15.8,15.5-15.5
			C626.1,428.7,633.5,436.4,633.3,444.4z"/>
		<path class="st5" d="M633.6,549.5c-0.5,0.1-1,0.1-1.5,0.1c-15.5-0.1-30.9,0-46.3,0c-4.4,0-8.8,0.2-13.2,0
			c-2.1-0.1-3.2,0.5-3.7,1.8c-0.2,0.6-0.3,1.3-0.3,2.2c0.1,11.8,0.1,23.5,0.1,35.3c0,8.2-0.1,16.5,0.1,24.8c0,1.5-0.2,2.5-1.1,3
			c-0.5,0.3-1.2,0.5-2.2,0.4c-17.2-0.1-34.4-0.2-51.6-0.1c-1.5,0-2.2-0.3-2.6-0.9c-0.5-0.8-0.4-2-0.4-3.2c0-18.6,0-37.2,0-55.8
			c0-1.9,0.1-3.3,0.1-4.3c0-2.8-1-3-7.6-3c-10.6,0-21.2,0-31.8-0.1c-4.8,0-9.5,0-14.3-0.2c-4-0.1-8.2,0-12.2-0.4
			c-0.4,0-0.8-0.1-1.1-0.3c-0.6-0.4-0.7-1.2-0.7-1.9c-0.1-4.6,0.1-9.3,0.1-13.9c0-5.3,0-10.6,0-15.9c0-4,0-7.9,0-11.9c0-2,0-4,0-6
			c0-1,0-2,0-3c0-0.5-0.2-1.7,0.1-2.2c0.1-0.1,0.2-0.2,0.4-0.3c0.3-0.2,0.7-0.3,1-0.4c0.6-0.2,1.2-0.2,1.9-0.2c0.4,0,0.7,0,1.1,0
			h1.2c1.3,0,2.6,0,3.9,0c3.5,0,7.1,0,10.6,0l21.2,0c6.9,0,13.9,0.2,20.8,0.1c0.5,0,1,0,1.5,0h0.1c0.5,0,1.1,0,1.7,0h0
			c0.2,0,0.5,0,0.7,0c0-0.1,0-0.1,0-0.2c1.3-0.6,1.4-2.3,1.4-7.3c0-10.6,0-21.2,0.1-31.8v-4.1l0.8-22.4c0.8-0.4,2.1-0.4,4.4-0.4
			c15.8,0,31.6,0,47.4,0.1c2.1,0,3.3,0,4,0.4c1,0.5,1,1.7,1,4.6c0.1,18.4,0.1,36.9,0.2,55.3c0,2.9,0,4.3,0.8,5
			c0.6,0.6,1.8,0.7,3.8,0.7c0,0,0,0,0,0c0.4,0,0.8,0,1.2,0c13.5,0,26.9,0,40.3,0.1h2.2c4.5,0,9,0,13.4,0h0.4c5.2,0,5.2,0.1,5.2,5.2
			c0,11.2-0.1,22.5-0.2,33.7c0,4.6-0.1,9.1,0.2,13.7C636.5,548.2,635.6,549.2,633.6,549.5z"/>
	</g>
</g>
<line class="st6" x1="681.6" y1="730.3" x2="677.3" y2="720.4"/>
<line class="st6" x1="674.7" y1="714.6" x2="670" y2="703.8"/>
<line class="st6" x1="667.7" y1="698.4" x2="665.8" y2="694"/>
</svg>
