<svg width="226" height="230" viewBox="0 0 226 230" fill="none" xmlns="http://www.w3.org/2000/svg">
<mask id="mask0_17_124" style="mask-type:luminance" maskUnits="userSpaceOnUse" x="5" y="0" width="187" height="188">
<path d="M5.03125 0.5H191.698V187.771H5.03125V0.5Z" fill="white"/>
</mask>
<g mask="url(#mask0_17_124)">
<path d="M70.6872 174.292H125.838V121.156H178.974V66.0052H125.838V12.8645H70.6872V66.0052H17.5465V121.156H70.6872V174.292ZM127.901 186.661H68.6247C62.9372 186.661 58.3122 182.036 58.3122 176.354V133.526H15.4893C9.80176 133.526 5.17676 128.901 5.17676 123.214V63.9427C5.17676 58.2604 9.80176 53.6302 15.4893 53.6302H58.3122V10.8073C58.3122 5.11975 62.9372 0.494751 68.6247 0.494751H127.901C133.583 0.494751 138.208 5.11975 138.208 10.8073V53.6302H181.036C186.718 53.6302 191.343 58.2604 191.343 63.9427V123.214C191.343 128.901 186.718 133.526 181.036 133.526H138.208V176.354C138.208 182.036 133.583 186.661 127.901 186.661Z" fill="white"/>
</g>
<path d="M18.516 189.031C14.292 189.031 10.8701 192.453 10.8701 196.677C10.8701 200.896 14.292 204.318 18.516 204.318C22.7347 204.318 26.1566 200.896 26.1566 196.677C26.1566 192.453 22.7347 189.031 18.516 189.031Z" fill="#CF7C32"/>
<mask id="mask1_17_124" style="mask-type:luminance" maskUnits="userSpaceOnUse" x="0" y="22" width="226" height="208">
<path d="M0.96875 22.4375H225.031V229.5H0.96875V22.4375Z" fill="white"/>
</mask>
<g mask="url(#mask1_17_124)">
<path d="M212.364 213.859C208.797 218.781 200.01 220.255 193.567 220.042C153.38 218.635 119.333 194.083 107.114 158.339C107.192 158.333 107.265 158.323 107.338 158.318C138.229 155.245 170.729 163.396 196.5 180.687C201.744 184.198 208.234 189.078 211.859 195.615C214.75 200.818 215.906 208.979 212.364 213.859ZM18.5153 207.198C12.708 207.198 7.98926 202.479 7.98926 196.677C7.98926 190.87 12.708 186.151 18.5153 186.151C20.5101 186.151 22.3747 186.724 23.9684 187.693C24.083 188.609 24.4528 189.505 25.1038 190.255C25.8434 191.115 26.8174 191.646 27.8486 191.844C28.6038 193.292 29.0361 194.932 29.0361 196.677C29.0361 202.479 24.3174 207.198 18.5153 207.198ZM220.291 190.937C215.666 182.594 208.015 176.797 201.869 172.672C173.864 153.891 139.953 145.38 106.39 148.719C105.755 148.781 105.114 148.849 104.468 148.922C103.25 143.479 102.547 137.896 102.359 132.266L107.255 124.708C124.958 114.646 135.963 89.6927 137.271 86.6093C138.026 84.8229 137.948 82.8958 137.224 81.25C142.182 67.5104 144.791 53.6927 146.125 44.0937C146.786 39.3385 145.359 34.5416 142.208 30.9166C139.052 27.2916 134.479 25.2083 129.672 25.2083H125.807C124.63 24.1562 123.088 23.5104 121.396 23.5104H115.849C112.192 23.5104 109.218 26.4843 109.218 30.1406C109.218 33.802 112.192 36.776 115.849 36.776H121.396C123.208 36.776 124.854 36.0416 126.052 34.8541H129.672C131.718 34.8541 133.588 35.7031 134.932 37.25C136.271 38.7864 136.854 40.7448 136.573 42.7656C135.307 51.8645 132.854 64.9739 128.234 77.8489C126.76 78.526 125.521 79.7291 124.838 81.3385C122.547 86.7395 116.291 98.6562 108.244 106.865H86.7341C78.6976 98.6614 72.4216 86.7395 70.1195 81.3385C69.4372 79.7291 68.1976 78.526 66.7288 77.8489C62.1038 64.9739 59.6507 51.8645 58.3851 42.7656C58.1038 40.7448 58.6872 38.7864 60.0257 37.25C61.3695 35.7031 63.2393 34.8541 65.2861 34.8541H68.9111C70.1091 36.0416 71.7549 36.776 73.5674 36.776H79.1143C82.7705 36.776 85.7445 33.802 85.7445 30.1406C85.7445 26.4843 82.7705 23.5104 79.1143 23.5104H73.5674C71.8747 23.5104 70.3278 24.1562 69.1559 25.2083H65.2861C60.4788 25.2083 55.9111 27.2916 52.7549 30.9166C49.6038 34.5364 48.1716 39.3385 48.833 44.0937C50.1716 53.6927 52.7757 67.5104 57.7393 81.25C57.0101 82.8958 56.932 84.8229 57.6924 86.6093C58.9997 89.6927 69.9997 114.651 87.708 124.708L92.6924 132.406L92.7184 132.443C92.9111 138.484 93.6403 144.479 94.9059 150.344C70.432 154.839 46.8278 165.865 27.6559 181.75C24.9945 180.115 21.8643 179.167 18.5153 179.167C8.85905 179.167 1.00488 187.021 1.00488 196.677C1.00488 206.328 8.85905 214.182 18.5153 214.182C28.1663 214.182 36.0205 206.328 36.0205 196.677C36.0205 193.875 35.3538 191.224 34.182 188.87C52.2236 174.021 74.4268 163.771 97.4059 159.693C110.385 200.177 148.343 228.109 193.234 229.682C193.64 229.693 194.14 229.703 194.713 229.703C200.416 229.703 213.557 228.646 220.172 219.521C226.396 210.953 224.593 198.698 220.291 190.937Z" fill="#46707A"/>
</g>
</svg>
